Coordinates
version=1
nRows=5
nColumns=40
inDegrees=yes

Units are S.I. units (second, meters, Newtons, ...)
If the header above contains a line with 'inDegrees', this indicates whether rotational values are in degrees (yes) or radians (no).

endheader
time	pelvis_tilt	pelvis_list	pelvis_rotation	pelvis_tx	pelvis_ty	pelvis_tz	hip_flexion_r	hip_adduction_r	hip_rotation_r	knee_angle_r	knee_angle_r_beta	ankle_angle_r	subtalar_angle_r	mtp_angle_r	hip_flexion_l	hip_adduction_l	hip_rotation_l	knee_angle_l	knee_angle_l_beta	ankle_angle_l	subtalar_angle_l	mtp_angle_l	lumbar_extension	lumbar_bending	lumbar_rotation	arm_flex_r	arm_add_r	arm_rot_r	elbow_flex_r	pro_sup_r	wrist_flex_r	wrist_dev_r	arm_flex_l	arm_add_l	arm_rot_l	elbow_flex_l	pro_sup_l	wrist_flex_l	wrist_dev_l
      0.00500000	     -0.28798466	      1.88702159	     -2.22823520	      0.25525136	      0.91586228	     -1.20728052	      0.00982445	    -19.58614560	    -37.85276995	      4.22910228	      0.07381176	     -8.09030719	      7.32442593	      0.00000000	     -0.08595121	    -14.93620087	    -39.21234233	      3.77644857	      0.06591146	     -6.85380497	     10.23282641	      0.00000000	    -11.88546311	     -2.14924843	     -0.98599956	     41.18475644	    -15.87524104	     41.18475644	     76.70073523	     44.38127945	      0.00000000	      0.00000000	     41.18475644	    -15.87524104	     41.18475644	     76.70073523	     44.38127945	      0.00000000	      0.00000000
      0.01000000	     -0.29324262	      1.81492375	     -2.13503803	      0.25519113	      0.91591949	     -1.20752108	     -0.07315435	    -19.45005693	    -37.75680090	      4.07105937	      0.07105339	     -8.20931278	      6.98205343	      0.00000000	     -0.00549913	    -15.04868077	    -39.20946915	      3.88439955	      0.06779556	     -6.82476071	     10.39028554	      0.00000000	    -11.91199526	     -2.04612054	     -1.15292576	     41.20682763	    -15.86795147	     41.20682763	     76.67822339	     44.40010090	      0.00000000	      0.00000000	     41.20682763	    -15.86795147	     41.20682763	     76.67822339	     44.40010090	      0.00000000	      0.00000000
      0.01500000	     -0.30533969	      1.71735476	     -2.10611380	      0.25508322	      0.91592500	     -1.20756728	     -0.07013996	    -19.32528158	    -37.73775353	      4.04408057	      0.07058252	     -8.24497710	      6.85684855	      0.00000000	      0.06125257	    -15.19555667	    -39.22109522	      4.00000601	      0.06981327	     -6.72998138	     10.48493268	      0.00000000	    -11.91632050	     -1.96946162	     -1.21820624	     41.28114120	    -15.84339747	     41.28114120	     76.60432458	     44.44923064	      0.00000000	      0.00000000	     41.28114120	    -15.84339747	     41.28114120	     76.60432458	     44.44923064	      0.00000000	      0.00000000
      0.02000000	     -0.28188764	      1.75621691	     -2.09212343	      0.25496323	      0.91594293	     -1.20764499	     -0.07078173	    -19.38351265	    -37.68954795	      4.08823013	      0.07135308	     -8.23028897	      6.69140909	      0.00000000	      0.06116315	    -15.15310091	    -39.21581031	      4.01850219	      0.07013609	     -6.76477747	     10.47851727	      0.00000000	    -11.93572245	     -2.02263166	     -1.24618551	     41.34472420	    -15.82312226	     41.34472420	     76.54644953	     44.48590635	      0.00000000	      0.00000000	     41.34472420	    -15.82312226	     41.34472420	     76.54644953	     44.48590635	      0.00000000	      0.00000000
      0.02500000	     -0.27607375	      1.68266598	     -2.10019765	      0.25482852	      0.91595947	     -1.20763826	     -0.04374710	    -19.30992262	    -37.68770274	      4.12405300	      0.07197830	     -8.24107580	      6.70184906	      0.00000000	      0.07274803	    -15.24350472	    -39.20084148	      4.05144762	      0.07071110	     -6.71148304	     10.37916463	      0.00000000	    -11.95773876	     -1.93728200	     -1.25085413	     41.40964400	    -15.80243837	     41.40964400	     76.48780679	     44.52046687	      0.00000000	      0.00000000	     41.40964400	    -15.80243837	     41.40964400	     76.48780679	     44.52046687	      0.00000000	      0.00000000
